<svg xmlns="http://www.w3.org/2000/svg" width="83" height="83" viewBox="0 0 83 83" fill="none">
  <path d="M83 0H0V83H83V0Z" fill="#0D4486"/>
  <path d="M61.268 69.0007C61.268 70.4065 61.268 71.7537 61.268 73.1595C57.2849 73.1595 53.1261 73.1595 49.1431 73.1595C49.1431 71.1679 49.1431 69.1764 49.1431 67.1263C45.2186 67.1263 41.3527 67.1263 37.4282 67.1263C37.4282 69.1178 37.4282 71.1093 37.4282 73.1595C35.6124 73.1595 33.7966 73.1595 31.9808 73.1595C31.9808 68.2978 31.9808 63.4361 31.9808 58.5744C31.5707 58.5744 31.2193 58.5744 30.8093 58.5744C30.8093 63.4361 30.8093 68.2978 30.8093 73.1595H24.0146L14.6427 62.1475C14.6427 65.8376 14.6427 69.5278 14.6427 73.1595C12.8269 73.1595 11.0111 73.1595 9.19529 73.1595L9.13672 56.9343H16.6928L25.4204 66.6577C25.4204 63.4361 25.4204 60.1559 25.4204 56.9343C30.5164 56.9343 32.3322 56.9343 37.4282 56.9343C37.4282 58.6916 37.4282 60.4488 37.4282 62.206C41.3527 62.206 45.2186 62.206 49.1431 62.206C49.1431 60.4488 49.1431 58.6916 49.1431 56.9343C50.9003 56.9343 52.6575 56.9343 54.4148 56.9343C54.4148 61.7374 54.4148 66.5991 54.4148 71.4022C54.8248 71.4022 55.2348 71.4022 55.7034 71.4022C55.7034 66.5991 55.7034 61.7374 55.7034 56.9343H72.5143C73.3343 56.9343 73.9201 57.4029 73.9201 58.3401C73.9201 58.8087 73.9201 67.6535 73.9201 67.6535C73.9201 68.4149 73.3343 68.9421 72.6314 68.9421H61.268V69.0007ZM68.5312 61.8546C68.5312 61.6203 68.3555 61.386 68.0626 61.386H61.2094V64.2561H68.0626C68.2969 64.2561 68.5312 63.9633 68.5312 63.7875C68.5312 63.6704 68.5312 61.8546 68.5312 61.8546Z" fill="white"/>
</svg>