<svg width="500" height="500" viewBox="0 0 500 500" fill="none" xmlns="http://www.w3.org/2000/svg">
    <path fill-rule="evenodd" clip-rule="evenodd" d="M0 0H500V500H0V0Z" fill="#171717"/>
    <path fill-rule="evenodd" clip-rule="evenodd" d="M254.329 146.667C245.04 158.122 218.546 195.104 215.526 199.893C209.713 209.067 209.2 213.514 209.029 216.476C208.86 219.384 208.86 224.626 213.589 228.901C221.511 235.967 232.621 234.825 242.48 234.825H323.684C327.16 234.825 328.187 233.798 330.068 231.292C336.563 221.376 339.471 210.606 339.471 200.974C339.471 180.345 326.081 154.361 292.173 142.621L288.352 148.091C315.248 160.854 326.363 177.551 326.363 200.915C326.535 207.184 324.88 213.965 320.776 220.234H241.793C237.064 220.234 236.379 214.878 238.089 211.856C244.86 199.805 252.417 188.213 260.71 177.154C268.689 166.498 276.552 156.524 284.816 146.097C287.039 143.191 285.555 140.398 281.112 139.487C271.88 137.55 262.251 136.183 250.568 136.183C185.779 136.183 162.07 173.393 162.07 200.974C162.07 230.893 185.948 265.598 250.739 265.598C286.697 265.598 310.234 254.026 323.852 239.155H310.117C298.206 250.153 277.748 257.964 250.739 257.964C195.862 257.964 175.634 227.132 175.634 200.575C176.031 176.869 197.742 144.159 252.109 143.077C254.161 143.02 255.759 144.901 254.329 146.667ZM449.221 317.451C452.468 317.907 454.977 320.47 454.977 323.495C454.977 326.908 451.9 329.645 448.137 329.645H378.504V284.113H357.986V329.762H320.262C310.063 329.762 307.957 323.549 307.957 317.85V283.83H273.937C270.573 286.11 267.325 288.619 263.849 290.725L243.676 303.148L217.464 284.002H176.661V295.457H191.418V289.184L226.123 314.091L202.417 328.96H176.659V340.415H206.461C209.651 338.252 212.673 335.971 215.978 333.977L236.719 321.383L263.045 340.189H293.023L253.414 310.385L273.761 297.111C278.093 294.258 282.653 291.869 287.096 289.249V319.222C287.096 331.873 290.344 340.648 315.816 340.648L459.706 340.309C470.815 340.475 477.938 332.786 477.938 323.5C477.938 314.263 469.731 306.686 459.706 306.686H407.736C408.421 300.362 413.886 295.065 419.414 295.065H472.011L471.845 284.066H416.055C398.387 284.066 384.258 298.712 383.858 315.752C383.804 316.947 384.598 317.687 385.91 317.687L449.221 317.451ZM176.661 317.282V305.599H186.804V317.282H176.661ZM176.661 284.002H138.138C127.711 284.002 119.675 286.738 113.75 291.407C103.094 299.843 99.6753 308.73 99.7894 312.722H113.693C107.595 317.282 103.491 322.747 101.328 329.077H55.7363C47.5316 329.077 42.2296 323.266 42.2296 317.622V283.602H22.059V318.934C22.059 331.64 34.1416 340.415 53.5133 340.415H176.661V328.96H127.768C127.996 323.15 134.206 317.282 139.848 317.282H176.661V305.599H127.197C126.515 302.18 132.896 295.457 137.796 295.457H176.661V284.002Z" fill="#ffffff"/>
</svg>
