<?xml version="1.0" encoding="utf-8"?>
<!-- Generator: Adobe Illustrator 27.5.0, SVG Export Plug-In . SVG Version: 6.00 Build 0)  -->
<svg version="1.1" id="Layer_1" xmlns="http://www.w3.org/2000/svg" xmlns:xlink="http://www.w3.org/1999/xlink" x="0px" y="0px"
	 viewBox="0 0 741.2 333.2" style="enable-background:new 0 0 741.2 333.2;" xml:space="preserve">
<style type="text/css">
	.st0{fill:#ED008C;}
	.st1{fill:#55005A;}
	.st2{fill:#F78828;}
	.st3{fill:#004BA5;}
	.st4{fill:#006E30;}
	.st5{fill:#F6C80A;}
	.st6{fill:#94BF1F;}
	.st7{fill:#24C1E2;}
</style>
<path class="st0" d="M676.9,131.4c1.1-8.3,9.4-16.1,19.6-16.1c10.4,0,18.4,6.7,19.4,16.1H676.9z M716.5,155.2
	c-4.1,6.5-9.2,10.6-18.7,10.6c-10.8,0-20.1-7.4-21-17.7h64.1c0.2-1.1,0.4-3.3,0.4-6.3c0-27.4-18.2-46.6-44.5-46.6
	c-25.8,0-45.2,19.6-45.2,45.9c0,27,19.1,45.9,46.3,45.9c19.1,0,33.2-8.8,40.4-23.1L716.5,155.2z M647.1,96.1
	c-0.5-0.2-2.5-0.5-4.4-0.5c-11.3,0-20.5,6.2-25.1,16.2V97.5h-25.4v87.2h25.6v-35.5c0-17.1,8.5-27.7,22.8-27.7c2.6,0,5.1,0.4,6.5,1.1
	L647.1,96.1L647.1,96.1z M503.7,141.1c0-12.5,9.9-22.6,22.4-22.6c12.5,0,22.4,10.1,22.4,22.6c0,12.5-9.9,22.6-22.4,22.6
	C513.6,163.7,503.7,153.6,503.7,141.1 M547.7,97.5v11.3c-6-9-16.8-13.4-28.3-13.4c-23.5,0-41.3,20-41.3,45.7
	c0,26,17.8,45.7,41.3,45.7c11.5,0,22.2-4.9,28.3-13.8v11.6h25.3V97.5H547.7z M444.2,184.7l30.9-87.2h-25.6l-17.3,52.8l-17.8-52.8
	h-18.9l-18,52.8l-16.9-52.8h-26.3l30.7,87.2h21.5l18.2-53.3l18.2,53.3H444.2z M254.9,141.1c0-12.5,9.9-22.6,22.4-22.6
	c12.5,0,22.4,10.1,22.4,22.6c0,12.5-9.9,22.6-22.4,22.6C264.8,163.7,254.9,153.6,254.9,141.1 M298.9,97.5v11.3
	c-6-9-16.8-13.4-28.3-13.4c-23.5,0-41.3,20-41.3,45.7c0,26,17.8,45.7,41.3,45.7c11.5,0,22.2-4.9,28.3-13.8v11.6h25.3V97.5H298.9z"/>
<path class="st1" d="M739.7,210c-0.3-0.1-1.5-0.3-2.7-0.3c-6.8,0-12.3,3.7-15,9.7v-8.6h-15.3v52.3H722v-21.3
	c0-10.3,5.1-16.6,13.7-16.6c1.6,0,3.1,0.2,3.9,0.6L739.7,210L739.7,210z M660.4,231.2c0.6-5,5.6-9.6,11.8-9.6c6.3,0,11,4,11.7,9.6
	H660.4z M684.1,245.5c-2.4,3.9-5.5,6.3-11.2,6.3c-6.5,0-12.1-4.4-12.6-10.6h38.5c0.1-0.6,0.2-2,0.2-3.8c0-16.4-10.9-28-26.7-28
	c-15.5,0-27.1,11.8-27.1,27.5c0,16.2,11.4,27.5,27.8,27.5c11.4,0,19.9-5.3,24.3-13.9L684.1,245.5z M624.1,237
	c0,7.5-5.9,13.6-13.5,13.6s-13.5-6-13.5-13.6s5.9-13.6,13.5-13.6S624.1,229.5,624.1,237 M597.7,285.3v-28.8
	c3.7,5.5,10.1,8.1,16.9,8.1c14.1,0,24.8-12,24.8-27.4c0-15.6-10.7-27.4-24.8-27.4c-6.9,0-13.2,2.9-16.9,8.3v-7h-15.4v74.4
	L597.7,285.3L597.7,285.3z M555.4,238.5c0,7.4-3.8,11.9-9.7,11.9c-5.8,0-9.2-4-9.2-10.9v-28.6H521v32.3c0,13.1,7.3,21.4,19.2,21.4
	c6.9,0,12.2-3.1,15.3-8.1v6.7h15.5v-52.3h-15.5V238.5z M492.9,221.9c3.2,0,6.7,2.5,8.3,6.5l12.6-6.7c-3.3-7.3-11.8-12.2-20.8-12.2
	c-12,0-20.2,7-20.2,16.9c0,8.3,5.1,13.8,14.9,16.1l6.2,1.5c3.2,0.7,4.8,2.1,4.8,3.9c0,2.5-2.2,4-5.5,4c-3.9,0-7.8-2.8-9.7-7.1
	l-12.5,6.9c3.5,8.1,11.8,12.8,22.1,12.8c12.2,0,21.1-7.4,21.1-17.9c0-7.4-5.3-12.9-15.2-15.5l-6.6-1.7c-2.9-0.7-4.3-2.1-4.3-4
	C488,223.4,490.1,221.9,492.9,221.9"/>
<path class="st0" d="M113.2,208.2v19.6c0,4-2.6,7.4-6.2,8.6v26.8h-9.6v-26.4h-2.9v26.4H85v-26.8c-3.6-1.2-6.2-4.6-6.2-8.6v-19.6
	c0-5,4-9,9-9h16.4C109.2,199.2,113.2,203.2,113.2,208.2 M108.3,181.9c0-6.8-5.5-12.3-12.3-12.3s-12.3,5.5-12.3,12.3
	c0,6.8,5.5,12.3,12.3,12.3C102.8,194.3,108.3,188.7,108.3,181.9"/>
<path class="st2" d="M108.9,89c0,3.7-3,6.8-6.8,6.8H89.8c-3.7,0-6.8-3-6.8-6.8V74.3c0-3,2-5.5,4.7-6.4V47.8h7.2v19.8h2.2V47.8h7.2
	v20.1c2.7,0.9,4.7,3.4,4.7,6.4L108.9,89 M105.2,108.7c0-5.1-4.1-9.2-9.2-9.2c-5.1,0-9.2,4.1-9.2,9.2c0,5.1,4.1,9.2,9.2,9.2
	C101.1,117.9,105.2,113.8,105.2,108.7"/>
<path class="st3" d="M41.2,156.7H26.5c-3,0-5.5-2-6.4-4.7H0v-7.2h19.8v-2.2H0v-7.2h20.1c0.9-2.7,3.4-4.7,6.4-4.7h14.7
	c3.7,0,6.8,3,6.8,6.8V150C48,153.7,45,156.7,41.2,156.7 M60.9,153c5.1,0,9.2-4.1,9.2-9.2c0-5.1-4.1-9.2-9.2-9.2
	c-5.1,0-9.2,4.1-9.2,9.2C51.7,148.9,55.8,153,60.9,153"/>
<path class="st4" d="M150.8,156.7c-3.7,0-6.8-3-6.8-6.8v-12.3c0-3.7,3-6.8,6.8-6.8h14.7c3,0,5.5,2,6.4,4.7H192v7.2h-19.8v2.2H192
	v7.2h-20.1c-0.9,2.7-3.4,4.7-6.4,4.7H150.8 M131.1,153c5.1,0,9.2-4.1,9.2-9.2c0-5.1-4.1-9.2-9.2-9.2c-5.1,0-9.2,4.1-9.2,9.2
	C121.9,148.9,126,153,131.1,153"/>
<path class="st5" d="M66.4,191.6L56,202c-2.1,2.1-5.3,2.5-7.8,1.2L34,217.5l-5.1-5.1l14-14l-1.5-1.5l-14,14l-5.1-5.1l14.2-14.2
	c-1.3-2.5-0.9-5.7,1.2-7.8l10.4-10.4c2.6-2.6,6.9-2.6,9.6,0l8.7,8.7C69.1,184.7,69.1,189,66.4,191.6 M77.7,175.1
	c3.6-3.6,3.6-9.5,0-13.1c-3.6-3.6-9.5-3.6-13.1,0c-3.6,3.6-3.6,9.5,0,13.1C68.3,178.7,74.1,178.7,77.7,175.1"/>
<path class="st1" d="M143.9,114.2c-2.6,2.6-6.9,2.6-9.6,0l-8.7-8.7c-2.6-2.6-2.6-6.9,0-9.6L136,85.5c2.1-2.1,5.3-2.5,7.8-1.2
	l14.2-14.2l5.1,5.1l-14,14l1.5,1.5l14-14l5.1,5.1l-14.2,14.2c1.3,2.5,0.9,5.7-1.2,7.8L143.9,114.2 M127.3,125.5
	c3.6-3.6,3.6-9.5,0-13.1c-3.6-3.6-9.5-3.6-13.1,0c-3.6,3.6-3.6,9.5,0,13.1C117.9,129.1,123.7,129.1,127.3,125.5"/>
<path class="st6" d="M48.1,114.2l-10.4-10.4c-2.1-2.1-2.5-5.3-1.2-7.8L22.3,81.7l5.1-5.1l14,14l1.5-1.5l-14-14l5.1-5.1l14.2,14.2
	c2.5-1.3,5.7-0.9,7.8,1.2l10.4,10.4c2.6,2.6,2.6,6.9,0,9.6l-8.7,8.7C55.1,116.8,50.8,116.8,48.1,114.2 M64.7,125.5
	c3.6,3.6,9.5,3.6,13.1,0c3.6-3.6,3.6-9.5,0-13.1c-3.6-3.6-9.5-3.6-13.1,0C61.1,116.1,61.1,121.9,64.7,125.5"/>
<path class="st7" d="M125.6,191.6c-2.6-2.6-2.6-6.9,0-9.6l8.7-8.7c2.6-2.6,6.9-2.6,9.6,0l10.4,10.4c2.1,2.1,2.5,5.3,1.2,7.8
	l14.2,14.2l-5.1,5.1l-14-14l-1.5,1.5l14,14l-5.1,5.1l-14.2-14.2c-2.5,1.3-5.7,0.9-7.8-1.2L125.6,191.6 M114.3,175.1
	c3.6,3.6,9.5,3.6,13.1,0c3.6-3.6,3.6-9.5,0-13.1s-9.5-3.6-13.1,0C110.7,165.7,110.7,171.5,114.3,175.1"/>
</svg>
