<svg width="318" height="216" viewBox="0 0 318 216" fill="none" xmlns="http://www.w3.org/2000/svg">
<rect width="318" height="216" fill="#102535"/>
<mask id="mask0_89_38" style="mask-type:luminance" maskUnits="userSpaceOnUse" x="74" y="45" width="171" height="127">
<path d="M245 45.1001H74.1V172H245V45.1001Z" fill="white"/>
</mask>
<g mask="url(#mask0_89_38)">
<path d="M140.6 124.9V125.1C140.7 126 140.6 128.1 140.6 130.7C140.6 133.3 140.3 138.8 140.2 139.8V140H140.4C140.6 139.9 140.9 139.9 141.1 139.9C141.3 139.9 141.6 139.9 141.8 140H142V139.8C141.9 139 141.8 134.6 141.8 132.8C141.8 131 141.8 129.7 141.8 128.9C145.3 132.6 149 136.6 152.1 140.2H152.6V140C152.6 139.1 152.5 134.4 152.5 132.3C152.5 130.7 152.7 126.5 152.8 125.3V125.1H152.6C152.4 125.2 152.2 125.2 152 125.2C151.8 125.2 151.5 125.2 151.3 125.1H151.1V125.3C151.3 128.4 151.3 132.3 151.3 136C148.7 133.4 144.2 128.5 140.9 124.9H140.6ZM207.8 124.9C205 124.9 203.1 126.6 203.1 129C203.1 131.6 204.8 132.4 206.5 133.1C208.2 133.8 209.7 134.3 209.7 136.1C209.8 137.6 208.6 138.9 207.1 139C207 139 206.9 139 206.9 139C205.5 139 204.3 138.2 203.7 136.9V136.8H203.2V137C203.2 137.6 203 138.2 202.8 138.8V138.9L202.9 139C203.9 139.8 205.1 140.3 206.4 140.2C209.7 140.2 211.7 138 211.7 135.4C211.7 133 210 132.2 208.3 131.5C206.6 130.8 205.1 130.3 205.1 128.4C205.1 127.1 206.2 126 207.5 125.9H207.6C208.7 125.9 209.7 126.7 210 127.8V127.9H210.5V127.8C210.6 127.2 210.8 126.6 211.1 126.1L211.2 126L211.1 125.9C210 125.2 208.9 124.9 207.8 124.9ZM245 125.1L244.7 125.2C244.2 125.3 243.6 125.3 243.1 125.2H243V125.3C241.9 127.7 240.6 130 239.2 132.3C237.8 129.9 236.5 127.6 235.3 125.3L235.2 125.2H235.1C234.4 125.3 233.6 125.3 232.8 125.2H232.5L232.7 125.5C233.6 126.8 236.9 132.5 237.8 134C237.8 136.2 237.8 138.4 237.6 139.9V140.1H237.8C238.1 140 238.5 140 238.8 140C239.1 140 239.5 140 239.8 140.1H240V139.9C239.9 138.6 239.8 135.8 239.8 133.8C240.7 132 242.2 129.6 244.8 125.6L245 125.1ZM135.8 125.1L135.6 125.2C135.4 125.3 135.2 125.3 135 125.3C134.7 125.3 134.4 125.3 134.2 125.2H134V125.4C134.1 126.2 134.1 128.2 134.1 132.2C134.2 133.7 134 135.2 133.5 136.6C132.9 138.2 131.3 139.2 129.6 139C125 139 125.1 135.5 125.1 132.6C125.1 129.5 125.2 126.7 125.3 125.4V125.2H125.1C124.8 125.3 124.5 125.3 124.2 125.3C123.8 125.3 123.5 125.3 123.1 125.2H122.9V125.4C122.9 126.6 123 128.5 123 130.8C123 131.8 122.9 132.8 122.9 134.1C122.4 137 124.4 139.8 127.3 140.2C127.9 140.3 128.4 140.3 129 140.2C132.8 140.2 135 137.8 135.1 134C135.1 131 135.3 127.3 135.5 125.3L135.8 125.1ZM217.3 125.1H217.1C216.8 125.2 216.4 125.2 216.1 125.2C215.8 125.2 215.4 125.2 215.1 125.1H215V125.3C215.1 127.1 215.2 128.9 215.2 130.7V134.3C215.2 136.1 215.1 137.9 215 139.7V140H215.2C215.5 139.9 215.9 139.9 216.2 139.9C216.5 139.9 216.9 139.9 217.2 140H217.4V139.8C217.3 138 217.2 136.2 217.2 134.4V130.8C217.2 129 217.3 127.2 217.4 125.4V125.1H217.3ZM88 125.2V125.4C88.1 127.2 88.2 129 88.2 130.8V134.4C88.2 136.2 88.1 138 88 139.8V140H88.2C88.9 139.9 89.5 139.9 90.2 140H90.4V139.8C90.3 138 90.2 136.2 90.2 134.4V132.6C91.6 132.6 93 132.6 94.4 132.6C95.8 132.6 97.2 132.6 98.6 132.6V134.4C98.6 136.2 98.5 138 98.4 139.8V140H98.6C98.9 139.9 99.3 139.9 99.6 139.9C99.9 139.9 100.3 139.9 100.6 140H100.8V139.8C100.7 138 100.6 136.2 100.6 134.4V130.8C100.6 129 100.7 127.2 100.8 125.4V125.2H100.6C100.3 125.3 99.9 125.3 99.6 125.3C99.3 125.3 98.9 125.3 98.6 125.2H98.4V125.4C98.5 127.2 98.6 129 98.6 130.8V131.4C97.2 131.4 95.8 131.5 94.4 131.5C93 131.5 91.6 131.5 90.2 131.4V130.8C90.2 129 90.3 127.2 90.4 125.4V125.2H90.2C89.5 125.3 88.9 125.3 88.2 125.2H88ZM157.3 125.2V125.4C157.4 127.2 157.5 129 157.5 130.8V134.4C157.5 136.2 157.4 138 157.3 139.8V140H157.5C158.2 139.9 158.8 139.9 159.5 140H159.7V139.8C159.6 138 159.5 136.2 159.5 134.4V130.8C159.5 129 159.6 127.2 159.7 125.4V125.2H159.5C158.8 125.3 158.2 125.3 157.5 125.2H157.3ZM112.9 125.2H112.7C111.5 125.3 110.2 125.3 109 125.3C107.8 125.3 106.5 125.3 105.3 125.2H105.1V125.4C105.2 127.2 105.3 129 105.3 130.8V134.4C105.3 136.2 105.2 138 105.1 139.8V139.9H105.3C106.6 139.8 107.8 139.8 109.1 139.8C110.4 139.8 111.6 139.8 112.9 139.9H113.1V139.7C113.1 139.5 113 139.3 113 139.1C113 138.9 113 138.7 113.1 138.5V138.3H112.9C111.1 138.5 109.2 138.6 107.4 138.6C107.4 138 107.4 137.1 107.4 135.6C107.4 133.8 107.4 133.2 107.4 132.7C108.5 132.7 111 132.7 112.4 132.9H112.6V132.7C112.6 132.5 112.5 132.3 112.5 132.1C112.5 131.9 112.5 131.7 112.6 131.5V131.3H112.4C111.2 131.4 109.8 131.5 107.5 131.5C107.5 130.9 107.5 129.9 107.5 128.9C107.5 127.9 107.6 127.2 107.6 126.4C110.2 126.4 111.2 126.6 113 126.7H113.2V126.5C113.1 126.1 113.1 125.7 113.2 125.3L112.9 125.2ZM190.1 125.2V125.4C190.2 127.2 190.3 129 190.3 130.8V134.4C190.3 136.2 190.2 138 190.1 139.8V140H190.3C190.6 139.9 191 139.9 191.3 139.9C191.6 139.9 192 139.9 192.3 140H192.5V139.8C192.4 138 192.3 136.2 192.3 134.4V133H192.9C194.9 135.2 196.6 137.5 198.3 139.9L198.4 140H198.5C198.9 139.9 199.3 139.9 199.7 139.9C200.1 139.9 200.5 139.9 200.9 140L201.3 140.1L201.1 139.8C199.9 138.5 196.7 134.3 195.5 132.9C197.1 132.6 199.7 131.5 199.7 128.8C199.8 127.7 199.3 126.7 198.3 126.1C197.3 125.6 196.3 125.3 195.2 125.4C194.4 125.4 193.6 125.5 192.8 125.5C192 125.5 191.2 125.5 190.4 125.4L190.1 125.2ZM85.2 125.2H85C83.2 125.3 81.4 125.3 79.6 125.3C77.8 125.3 76 125.3 74.2 125.2H74L74.1 125.4C74.2 125.6 74.2 125.8 74.2 126C74.2 126.2 74.2 126.4 74.1 126.6L74 126.8H74.2C75.6 126.6 77.1 126.6 78.5 126.6C78.5 128 78.6 129.4 78.6 130.8V134.4C78.6 136.2 78.5 138 78.4 139.8V140H78.6C78.9 139.9 79.3 139.9 79.6 139.9C79.9 139.9 80.3 139.9 80.6 140H80.8V139.8C80.7 138 80.6 136.2 80.6 134.4V130.8C80.6 129.4 80.6 128 80.7 126.6C82.1 126.6 83.6 126.7 85 126.8H85.2L85.1 126.6C85 126.4 85 126.2 85 126C85 125.8 85 125.6 85.1 125.4L85.2 125.2ZM178.8 125.2V125.4C178.9 127.2 179 129 179 130.8V134.4C179 136.2 178.9 138 178.8 139.8V139.9H179C180.3 139.8 181.5 139.8 182.8 139.8C184.1 139.8 185.3 139.8 186.6 139.9H186.8V139.7C186.8 139.5 186.7 139.3 186.7 139.1C186.7 138.9 186.7 138.7 186.8 138.5V138.3H186.6C184.8 138.5 182.9 138.6 181.1 138.6C181.1 138 181.1 137.1 181.1 135.6C181.1 133.8 181.1 133.2 181.1 132.7C182.2 132.7 184.7 132.7 186 132.9H186.2V132.7C186.2 132.5 186.2 132.3 186.2 132.1C186.2 131.9 186.2 131.7 186.2 131.5V131.3H186C184.8 131.4 183.4 131.5 181.1 131.5C181.1 130.9 181.1 129.9 181.1 128.9C181.1 127.9 181.1 127.2 181.2 126.4C183.8 126.4 184.8 126.6 186.6 126.7H186.8V126.5C186.7 126.1 186.7 125.7 186.8 125.3V125.1H186.6C185.4 125.2 184.1 125.2 182.9 125.2C181.7 125.2 180.4 125.2 179.2 125.1L178.8 125.2ZM231.3 125.2H231.1C229.3 125.3 227.5 125.3 225.7 125.3C223.9 125.3 222.1 125.3 220.3 125.2H220.1L220.2 125.4C220.3 125.6 220.3 125.8 220.3 126C220.3 126.2 220.3 126.4 220.2 126.6L220.1 126.8H220.3C221.7 126.6 223.2 126.6 224.6 126.6C224.6 128 224.7 129.4 224.7 130.8V134.4C224.7 136.2 224.6 138 224.5 139.8V140H224.7C225.4 139.9 226 139.9 226.7 140H226.9V139.8C226.8 138 226.7 136.2 226.7 134.4V130.8C226.7 129.4 226.7 128 226.8 126.6C228.2 126.6 229.7 126.7 231.1 126.8H231.3L231.2 126.6C231.1 126.4 231.1 126.2 231.1 126C231.1 125.8 231.1 125.6 231.2 125.4L231.3 125.2ZM162.6 125.3C164.6 130.1 167.2 136.3 168.4 139.8C168.6 139.7 168.8 139.7 169.1 139.7C169.3 139.7 169.6 139.7 169.8 139.8C171.6 135 173.6 130.2 175.8 125.4C175.3 125.5 174.8 125.5 174.3 125.4C173.4 128.1 171.1 134.4 169.5 137.8C167.7 133.6 166 129.1 164.7 125.4C164 125.5 163.3 125.5 162.6 125.3ZM194.3 126.2C195.7 126.2 197.4 126.7 197.4 128.8C197.4 131.2 195.2 131.8 193.5 131.9C193.1 131.9 192.7 131.9 192.2 131.8V130.7C192.2 129.2 192.3 127.8 192.3 126.3C192.8 126.3 193.4 126.2 194.3 126.2ZM74.2 144.1V144.5H244.4V144.1H74.2ZM101.9 148.9C99.6 154.8 94.7 165.6 91.7 172C92.2 171.9 92.7 171.8 93.1 171.8C93.6 171.8 94 171.9 94.5 172C95.3 169 96.3 166.2 97.6 163.4H105.9C107.2 166.2 108.4 169.1 109.2 172.1C109.9 172 110.6 171.9 111.3 171.9C112 171.9 112.6 172 113.3 172.1C113.2 172 105.9 155.9 103.4 149C103.2 149.1 102.9 149.1 102.7 149.1C102.5 149 102.2 149 101.9 148.9ZM181.2 148.9C178.9 154.8 174 165.6 171 172C171.5 171.9 172 171.8 172.4 171.8C172.9 171.8 173.3 171.9 173.8 172C174.6 169 175.6 166.1 176.9 163.4H185.2C186.5 166.2 187.7 169.1 188.5 172C189.2 171.9 189.9 171.8 190.6 171.8C191.3 171.8 191.9 171.9 192.5 172C192.4 171.9 185.1 155.8 182.6 148.9C182.4 149 182.1 149 181.9 149C181.8 149 181.5 148.9 181.2 148.9ZM116.5 149.1C116.7 152.6 116.8 153.9 116.8 158.8C116.8 166.4 116.6 168.7 116.4 172C118.3 171.9 119 171.9 119.9 171.9C120.8 171.9 124.8 172 125.1 172C131.7 172 137.6 168.3 137.6 159.9C137.8 156.7 136.4 153.6 134 151.6C130.9 149.2 127.8 149.2 121.9 149.2C120.1 149.2 118.3 149.2 116.5 149.1ZM206.8 149.1C207 152.6 207.1 153.9 207.1 158.8C207.1 166.4 206.9 168.7 206.7 172C208.6 171.9 209.3 171.9 210.2 171.9C211.1 171.9 215.1 172 215.4 172C222 172 227.9 168.3 227.9 159.9C228.1 156.7 226.7 153.6 224.3 151.6C221.2 149.2 218.1 149.2 212.2 149.2C210.4 149.2 208.6 149.2 206.8 149.1ZM157.7 149.1C157.8 150.5 158 155.4 158 159.9C158 164.2 158 167.7 157.7 171.9C159.5 171.8 160.3 171.7 163.2 171.7C166.8 171.7 168.2 171.8 170.3 171.9C170.2 171.5 170.2 171.2 170.2 170.8C170.2 170.4 170.2 170.1 170.3 169.7C168.3 170 166.3 170.1 164.3 170.1C163.5 170.1 162.8 170.1 161.2 170C161.2 159.7 161.2 157.5 161.5 149C160.8 149.1 160.1 149.2 159.4 149.2C158.8 149.2 158.2 149.2 157.7 149.1ZM196.8 149.1C197 155.1 197 155.4 197 160.2C197 166.7 196.9 168.4 196.7 172C197.3 171.9 197.9 171.8 198.4 171.8C199.1 171.8 199.7 171.9 200.4 172C200.3 169.5 200.2 166.9 200.2 160.9C200.2 157 200.3 153 200.5 149.1C199.9 149.2 199.2 149.3 198.6 149.3C197.9 149.3 197.3 149.3 196.8 149.1ZM140.9 149.1C141.1 152.3 141.2 156.8 141.2 160.1C141.2 167.3 141 169.4 140.8 171.9C143.3 171.8 145.9 171.7 148.4 171.7C149.9 171.7 151.5 171.8 153 171.9C152.9 171.6 152.9 171.2 152.9 170.8C152.9 170.4 152.9 170 153 169.7C150.1 170 147.2 170.1 144.3 170.1C144.3 169.2 144.2 166.7 144.2 165C144.2 163.6 144.2 162.1 144.3 160.7C145.1 160.7 146.1 160.6 147 160.6C148.7 160.6 150.4 160.7 152.1 160.9C152.1 160.5 152 160.2 152 159.9C152 159.5 152.1 159.1 152.1 158.8C149.5 159 146.9 159.1 144.3 159C144.3 157.2 144.3 156.9 144.3 154.7C144.3 152.8 144.3 152.2 144.4 150.9C145.8 150.8 146.4 150.8 147.6 150.8C149.4 150.8 151.1 150.9 152.8 151.2C152.7 150.9 152.7 150.5 152.7 150.2C152.7 149.8 152.7 149.4 152.8 149C151.1 149.2 149.5 149.2 147.8 149.2C145.5 149.2 143.2 149.2 140.9 149V149.1ZM232.5 149.1C232.7 152.3 232.8 156.8 232.8 160.1C232.8 167.3 232.6 169.4 232.4 171.9C234.9 171.8 237.5 171.7 240.1 171.7C241.6 171.7 243.2 171.7 244.7 171.9C244.6 171.6 244.6 171.2 244.6 170.8C244.6 170.4 244.7 170 244.7 169.7C241.8 170 238.9 170.1 236 170.1C236 169.2 235.9 166.7 235.9 165C235.9 163.6 235.9 162.1 236 160.7C236.8 160.7 237.8 160.6 238.7 160.6C240.4 160.6 242.1 160.7 243.8 160.9C243.8 160.5 243.7 160.2 243.7 159.9C243.7 159.5 243.7 159.1 243.8 158.8C241.2 159 238.6 159.1 236 159C236 157.2 236 156.9 236 154.7C236 152.8 236 152.2 236.1 150.9C237.5 150.8 238.1 150.8 239.3 150.8C241.1 150.8 242.8 150.9 244.5 151.2C244.4 150.9 244.4 150.5 244.4 150.2C244.4 149.8 244.5 149.4 244.5 149C242.8 149.2 241.2 149.2 239.5 149.2C237.2 149.4 234.9 149.4 232.5 149.1ZM91.9 150.6C90.5 150.6 89.2 151.3 88.4 152.4C87.2 153.9 86.4 155.7 86 157.6H84.2C83.9 157.8 83.9 158.1 84 158.4H85.8C84.8 161.9 84 165.7 83 169.1C82.5 170.8 82 170.9 81.6 170.9C81 170.8 80.4 170.5 80 170C79.9 169.8 79.7 169.8 79.5 169.9C79.2 170.1 79 170.5 79 170.9C79 171.2 79.4 172 80.6 172C81.6 171.9 82.5 171.5 83.2 170.8C84 169.8 84.6 168.6 84.9 167.3C85.6 164.9 86.2 162.8 86.8 160.4C87.1 159.5 87.2 158.8 87.4 158.4H90.1C90.4 158.2 90.5 157.9 90.3 157.6H87.6C88 155.8 88.7 154.1 89.6 152.5C89.9 151.9 90.5 151.5 91.2 151.3C91.7 151.3 92.4 151.7 92.4 152.9C92.4 153 92.5 153.3 92.7 153.3C93.1 153.3 93.6 152.6 93.6 152.1C93.5 151.3 92.8 150.6 91.9 150.6ZM122.9 150.6C125.5 150.6 128.3 150.6 130.7 152.4C133.5 154.5 134 157.8 134 160.3C134 162.9 133.4 166.7 130.3 168.9C128.1 170.5 124.9 170.5 123.5 170.5C122.3 170.5 121.1 170.5 120 170.3C119.9 167 119.9 166.3 119.9 160.3C119.9 157.3 119.9 153.9 120.1 150.9C121 150.7 122 150.6 122.9 150.6ZM213.3 150.6C215.9 150.6 218.7 150.6 221.1 152.4C223.9 154.5 224.4 157.8 224.4 160.3C224.4 162.9 223.8 166.7 220.7 168.9C218.5 170.5 215.3 170.5 213.9 170.5C212.7 170.5 211.5 170.5 210.4 170.3C210.3 167 210.3 166.3 210.3 160.3C210.3 157.3 210.3 153.9 210.5 150.9C211.3 150.7 212.3 150.6 213.3 150.6ZM101.7 153.4L105.3 161.6H98.3L101.7 153.4ZM181.1 153.4L184.7 161.6H177.7L181.1 153.4ZM80 157.3C78.9 157.3 77.8 157.9 77 158.7C75.7 160 74.9 161.7 74.6 163.6C74.5 165.5 75.4 166.5 76.8 166.5C78 166.5 79.1 165.9 79.9 165C81.2 163.7 82 161.9 82.2 160.1C82.3 158.4 81.5 157.3 80 157.3ZM79.8 157.9C80.6 157.9 80.7 158.7 80.7 159.3C80.4 161.2 79.7 163 78.7 164.6C78 165.5 77.5 165.7 77 165.7C76.5 165.7 76.1 165.1 76.1 164.3C76.4 162.4 77.1 160.5 78.2 158.9C78.9 158.1 79.4 158 79.8 157.9Z" fill="white"/>
</g>
<path d="M159.2 104C144 97.4001 136.2 85.5001 136.1 68.6001H182.3C182.3 85.5001 174.5 97.4001 159.2 104Z" fill="white"/>
<path d="M173.1 72.7001H171.7V70.9001H169.7V69.1001L168.8 69.4001C167.3 70.0001 165.7 70.3001 164.1 70.2001C161.2 70.2001 159.8 70.9001 159.2 71.4001C158.6 70.9001 157.3 70.2001 154.4 70.2001C152.8 70.3001 151.2 70.0001 149.6 69.4001L148.7 69.1001V70.9001H146.7V72.7001H144.8V91.6001H157.5H157.6C157.6 92.5001 158.3 93.2001 159.1 93.2001C159.9 93.2001 160.7 92.5001 160.7 91.7001L160.9 91.6001H173.6V72.7001H173.1Z" fill="black"/>
<path d="M182.4 47.3V67.5H136.1V47.3H182.4Z" fill="#005A9C"/>
<path d="M184.6 45.1001H133.8V68.3001C133.8 86.5001 142.2 99.3001 158.8 106.3L159.2 106.5L159.6 106.3C176.2 99.3001 184.5 86.5001 184.5 68.3001L184.6 45.1001ZM182.4 47.3001V67.5001H136.1V47.3001H182.4ZM159.2 104C144 97.4001 136.2 85.5001 136.1 68.6001H182.3C182.3 85.5001 174.5 97.4001 159.2 104Z" fill="black"/>
<path d="M190 93.5C184.1 94.8 179.2 97 176.1 99.7V99.8H176L178.2 104.6C173.9 106.7 167.9 108.3 159.9 108.3H159.6C151.5 108.3 145.4 106.7 141.2 104.6L143.2 100L143.3 99.8C140.3 97.1 135.4 94.9 129.4 93.6V101.2C132.2 102.1 134.1 102.9 135.6 104.3L134.9 105.7L133.5 108.5L133.2 109C138.2 113.5 148.2 116.6 159.5 116.6H159.8C171.2 116.6 181.1 113.4 186.1 109L183.7 104.2C185.3 102.8 187.1 102.1 189.9 101.1L190 93.5Z" fill="#ED1C2E"/>
<path d="M181.2 105.6L180.5 106L180.8 106.5C181 106.8 181.3 107.3 181.7 107.9L179.9 106.3L179.1 106.7L181 109.9L181.7 109.5L181.4 109C181.1 108.5 180.8 108 180.5 107.6L182.3 109.3L183.1 108.9L181.2 105.6ZM138.2 106C137.8 106 137.4 106.2 137.2 106.6C137.1 106.8 137 107 137.1 107.3C137.2 107.6 137.3 107.9 137.4 108.1C137.5 108.4 137.7 108.6 137.5 108.8C137.4 109 137.3 109 137.1 109C137.1 109 137.1 109 137 109C136.8 108.9 136.8 108.7 137 108.4V108.3L136.3 107.9C136.3 108 136.2 108 136.2 108.1C135.9 108.5 136 109.2 136.4 109.5C136.5 109.6 136.6 109.6 136.6 109.6C137.1 109.9 137.7 109.8 138 109.3C138.1 109.2 138.1 109.1 138.1 109C138.2 108.8 138.3 108.6 138.3 108.4C138.2 108.1 138.1 107.8 138 107.6C137.8 107.3 137.7 107.1 137.8 106.8C137.9 106.7 138 106.6 138.2 106.6C138.4 106.7 138.4 106.9 138.2 107.2L138.9 107.6V107.5C139.2 107 139 106.4 138.6 106.1L138.5 106C138.4 106 138.3 105.9 138.2 106ZM140.4 107.1L139.7 108.9C139.5 109.3 139.4 109.7 139.3 110.2C139.4 110.6 139.7 110.9 140 111C140.4 111.2 140.8 111.2 141.1 110.9C141.3 110.7 141.5 110.4 141.6 110.1C141.6 110 141.7 109.9 141.7 109.8L142.5 107.9L141.7 107.6L140.8 109.7C140.6 110.1 140.5 110.4 140.2 110.3C139.9 110.2 140 109.9 140.2 109.5L141.1 107.3L140.4 107.1ZM178.5 107.2L176.7 108L178.1 111.4L180 110.6L179.7 109.9L178.7 110.3L178.4 109.6L179.4 109.2L179.1 108.5L178.1 108.9L177.8 108.3L178.8 107.9L178.5 107.2ZM143.5 108.3L142.4 111.8L143.4 112.1C143.7 112.2 144.1 112.2 144.4 112.1C144.7 111.9 144.9 111.7 145 111.4C145.1 111.1 145.1 110.6 144.8 110.4C145.1 110.3 145.3 110.1 145.4 109.8C145.5 109.5 145.4 109.2 145.2 108.9C145 108.7 144.7 108.6 144.4 108.5L143.5 108.3ZM175.7 108.3L174.6 108.6L174.7 110.2C174.7 110.3 174.7 110.5 174.8 111.1C174.6 110.6 174.5 110.4 174.4 110.3L173.6 108.9L172.4 109.2L173.5 112.7L174.3 112.5L173.4 109.8L174.8 112.4L175.4 112.2L175.2 109.3L175.9 112.1L176.7 111.9L175.7 108.3ZM144.1 109.1C144.5 109.2 144.6 109.4 144.5 109.6C144.4 109.8 144.2 110 143.9 109.9L144.1 109.1ZM171.5 109.4L170.7 109.6L171.2 111.8C171.2 111.8 171.2 111.8 171.2 111.9C171.3 112.4 171.3 112.6 171.1 112.7C170.9 112.8 170.8 112.5 170.6 112L170.2 109.7L169.4 109.9L169.8 111.9C169.9 112.4 170 112.8 170.2 113.2C170.5 113.5 170.8 113.6 171.2 113.4C171.6 113.4 172 113.1 172.1 112.7C172.2 112.4 172.2 112.1 172.1 111.8L172 111.5L171.5 109.4ZM149.2 109.7C148.9 109.7 148.6 109.8 148.4 110C148.1 110.4 148 110.9 147.9 111.4C147.8 111.9 147.7 112.4 147.8 112.9C148 113.3 148.3 113.5 148.7 113.6C149.5 113.7 150 113.4 150.1 112.5V112.3L149.3 112.1C149.3 112.2 149.3 112.2 149.3 112.3C149.2 112.7 149.1 112.9 148.8 112.9C148.5 112.9 148.5 112.5 148.7 111.6C148.7 111.6 148.7 111.6 148.7 111.5C148.8 110.7 148.9 110.4 149.3 110.4C149.7 110.4 149.6 110.7 149.5 111.1L150.3 111.3C150.5 110.4 150.1 109.9 149.4 109.8L149.2 109.7ZM151.7 110.2L151.3 113.9L152.2 114L152.4 112.5H152.6C152.9 112.5 153 112.7 152.9 113.1C152.9 113.2 152.9 113.3 152.9 113.5C152.9 113.7 152.9 113.8 152.9 114L153.9 114.1C153.7 113.9 153.8 113.6 153.8 113.1C153.8 112.6 153.9 112.4 153.5 112.2C153.8 112.1 154.1 111.7 154.1 111.4C154.2 111.1 154.1 110.8 153.9 110.6C153.6 110.4 153.3 110.3 152.9 110.3L151.7 110.2ZM167.4 110.2L166.5 110.3L167 113.9L168.9 113.7L168.8 113L167.8 113.1L167.4 110.2ZM143.7 110.5C144.1 110.6 144.3 110.8 144.2 111.1C144.1 111.4 143.9 111.5 143.5 111.4H143.4L143.7 110.5ZM155 110.5L154.9 112.5C154.8 112.9 154.9 113.4 155 113.8C155.4 114.4 156.3 114.5 156.8 114C156.9 114 156.9 113.9 157 113.9C157.1 113.6 157.2 113.3 157.2 113C157.2 112.9 157.2 112.8 157.2 112.7L157.3 110.6H156.4L156.3 112.9C156.3 113.4 156.3 113.6 156 113.6C155.7 113.6 155.7 113.3 155.7 112.8L155.8 110.5H155ZM163.8 110.5L161.8 110.6L162 114.3L164 114.2V113.4L162.8 113.5V112.7L163.9 112.6V111.8L162.9 111.9V111.2H164L163.8 110.5ZM159.5 110.6C159.1 110.6 158.7 110.7 158.5 111.1C158.2 112 158.2 113.1 158.5 114C158.7 114.3 159.1 114.5 159.5 114.5C160.3 114.5 160.7 114.1 160.7 113.2C160.7 113.1 160.7 113.1 160.7 113H159.9V113.2C159.9 113.7 159.8 113.9 159.5 113.9C159.2 113.9 159.1 113.5 159.2 112.7V112.6C159.2 111.8 159.2 111.4 159.6 111.4C160 111.4 160 111.6 160 112.1H160.8C160.7 111 160.3 110.6 159.5 110.6ZM152.5 110.8H152.6C152.9 110.8 153.1 111 153 111.3C152.9 111.6 152.8 111.7 152.4 111.7H152.3L152.5 110.8Z" fill="white"/>
<path d="M158.8 88.8999C158 87.8999 156.7 87.2999 155.4 87.1999L154.2 87.2999C153 87.3999 151.2 87.5999 150.4 87.5999H148.7V71.8999H147.7V88.6999H150.4C151.2 88.6999 152.9 88.4999 154.1 88.3999L155.4 88.2999C156.5 88.0999 157.7 88.3999 158.8 88.8999Z" fill="white"/>
<path d="M169.7 71.8999V87.6999H168C167.2 87.6999 165.4 87.4999 164.2 87.3999L163 87.2999C161.7 87.2999 160.4 87.8999 159.6 88.9999C160.6 88.3999 161.9 88.0999 163.1 88.2999L164.4 88.3999C165.6 88.4999 167.3 88.6999 168.1 88.6999H170.8V71.8999H169.7Z" fill="white"/>
<path d="M155.4 86.2001L154.1 86.3001C152.9 86.4001 151.2 86.6001 150.4 86.6001H149.7V70.6001C151.2 71.1001 152.8 71.4001 154.3 71.3001C158 71.3001 158.7 72.4001 158.7 72.5001L158.8 72.6001V87.4001C157.8 86.6001 156.6 86.2001 155.4 86.2001Z" fill="white"/>
<path d="M168.7 86.6001H168C167.2 86.6001 165.5 86.4001 164.3 86.3001L163 86.2001C161.7 86.2001 160.5 86.6001 159.5 87.3001V72.6001L159.6 72.5001C159.6 72.5001 160.3 71.3001 164 71.3001C165.6 71.4001 167.1 71.1001 168.6 70.6001L168.7 86.6001Z" fill="white"/>
<path d="M150.8 72.1001V73.9001C152 74.3001 153.3 74.4001 154.6 74.4001C155.7 74.4001 156.7 74.5001 157.7 74.8001V74.3001C156.7 74.0001 155.6 73.9001 154.6 73.9001C153.6 73.9001 152.6 73.8001 151.7 73.6001V72.3001C151.3 72.3001 151.1 72.2001 150.8 72.1001ZM161.7 72.6001C161.5 72.6001 161.4 72.7001 161.2 72.7001C161.1 72.7001 160.9 72.8001 160.8 72.8001V74.8001C161.8 74.5001 162.8 74.4001 163.9 74.4001C165.2 74.4001 166.5 74.3001 167.7 73.9001V73.4001C166.5 73.8001 165.2 73.9001 163.9 73.9001C163.2 73.9001 162.4 74.0001 161.7 74.1001V72.6001ZM150.8 75.6001V76.1001C152.1 76.3001 153.4 76.4001 154.7 76.4001H155.6C156.3 76.4001 157 76.5001 157.7 76.8001V76.3001C157 76.1001 156.3 76.0001 155.6 76.0001H154.6C153.3 75.9001 152 75.8001 150.8 75.6001ZM167.7 75.6001C166.4 75.9001 165.1 76.0001 163.9 75.9001H162.9C162.2 75.9001 161.6 76.0001 160.9 76.2001V76.7001C161.6 76.5001 162.3 76.4001 163 76.3001H163.9C165.2 76.3001 166.5 76.2001 167.8 76.0001L167.7 75.6001ZM150.8 77.7001V78.2001C152.1 78.3001 153.4 78.4001 154.7 78.3001H155.5C156.2 78.3001 157 78.4001 157.6 78.7001V78.2001C156.9 78.0001 156.2 77.9001 155.5 77.8001H154.6C153.4 77.9001 152.1 77.9001 150.8 77.7001ZM167.7 77.8001C166.4 77.9001 165.1 78.0001 163.8 77.9001H162.9C162.2 77.9001 161.5 78.0001 160.8 78.2001V78.7001C161.5 78.5001 162.2 78.3001 162.9 78.3001H163.7C165 78.4001 166.3 78.3001 167.6 78.2001V77.8001H167.7ZM155.5 79.9001H154.7C153.4 80.0001 152 80.0001 150.7 79.9001V80.4001C152 80.5001 153.4 80.5001 154.7 80.4001H155.4C156.1 80.4001 156.9 80.5001 157.6 80.8001V80.2001C156.9 80.0001 156.2 79.9001 155.5 79.9001ZM162.9 80.0001C162.2 80.0001 161.5 80.1001 160.8 80.4001V80.9001C161.5 80.6001 162.2 80.5001 162.9 80.5001H163.6C164.9 80.6001 166.3 80.6001 167.6 80.5001V80.0001C166.3 80.1001 164.9 80.1001 163.6 80.0001H162.9ZM155.5 82.0001H154.8H154.4C153.3 82.1001 151.7 82.2001 150.8 82.2001V82.7001C151.8 82.7001 153.3 82.6001 154.4 82.5001H154.8H155.4C156.2 82.5001 156.9 82.6001 157.6 82.9001V82.3001C156.9 82.1001 156.2 82.0001 155.5 82.0001ZM163 82.0001C162.3 82.0001 161.5 82.1001 160.8 82.4001V83.0001C161.5 82.7001 162.2 82.6001 163 82.6001H163.6H164C165.1 82.7001 166.7 82.8001 167.6 82.8001V82.3001C166.7 82.3001 165.2 82.2001 164 82.1001H163.6L163 82.0001ZM155.4 84.0001L154.2 84.1001C153.2 84.2001 151.7 84.4001 150.8 84.4001V85.0001C151.7 85.0001 153.2 84.8001 154.2 84.7001L155.4 84.6001C156.2 84.6001 156.9 84.7001 157.6 85.0001V84.4001C156.9 84.2001 156.2 84.1001 155.4 84.0001ZM163 84.1001C162.2 84.1001 161.5 84.2001 160.8 84.5001V85.0001C161.5 84.7001 162.3 84.6001 163 84.6001L164.2 84.7001C165.3 84.8001 166.8 85.0001 167.7 85.0001V84.5001C166.8 84.5001 165.3 84.3001 164.3 84.2001L163 84.1001Z" fill="black"/>
<path d="M155.4 89.3002L154.2 89.4002C153 89.5002 151.2 89.7002 150.4 89.7002H146.7V73.7002H145.8V90.6002H150.4C151.2 90.6002 153 90.4002 154.1 90.3002L155.4 90.2002C156.3 90.1002 157.2 90.1002 158.1 90.2002V90.1002C157.3 89.6002 156.3 89.2002 155.4 89.3002Z" fill="white"/>
<path d="M171.7 73.7002V89.7002H168C167.2 89.7002 165.4 89.5002 164.2 89.4002L163 89.3002C162 89.3002 161 89.6002 160.2 90.3002C161.1 90.1002 162.1 90.0002 163 90.2002L164.3 90.3002C165.5 90.4002 167.2 90.6002 168 90.6002H172.6V73.7002H171.7Z" fill="white"/>
<path d="M159.4 48.5L158.4 49.9L156.6 49.8L157 51.4L155.8 52.7L157.4 53.4L157.7 55.1L159.3 54.3L160.8 55.1L161.1 53.4L162.8 52.7L161.6 51.4L162.1 49.7L160.3 49.8L159.4 48.5ZM169 52.9L168 54.3L166.2 54.2L166.7 55.8L165.5 57.1L167.1 57.8L167.4 59.5L169 58.7L170.5 59.5L170.8 57.8L172.5 57.1L171.3 55.8L171.8 54.1L170 54.2L169 52.9ZM150.9 56.9L149.6 58.2H147.8V60L146.5 61.3L147.8 62.6V64.4H149.6L150.9 65.7L152.2 64.4H154.1V62.6L155.3 61.4L154.1 60.2V58.4H152.2L150.9 56.9ZM159.4 59.5L158.6 60.7L157.2 61.1L158.1 62.2V63.6L159.5 63.1L160.9 63.6V62.2L161.8 61.1L160.4 60.7L159.4 59.5ZM165.4 61.2L164.7 62.4H163L163.8 63.8L163 65.2H164.7L165.4 66.4L166.1 65.2H167.8L167 63.8L167.8 62.4H166.1L165.4 61.2Z" fill="white"/>
<path d="M174.6 86.2003V79.3003H175V77.2003H174.6V74.8003H173.6V91.7003H160.9L160.7 91.8003C160.6 92.7003 159.9 93.3003 159 93.2003C158.2 93.1003 157.6 92.5003 157.6 91.7003H157.5H144.8V74.8003H143.8V77.2003H143.4V79.3003H143.8V86.2003H143.4V88.3003H143.8V92.5003H156.6C157.2 93.9003 158.9 94.6003 160.3 93.9003C160.9 93.6003 161.5 93.1003 161.7 92.5003H174.5V88.3003H174.9V86.2003H174.6Z" fill="#ED1C2E"/>
<path d="M136.1 68.6C136.2 85.5 144 97.4 159.2 104V94.2C158.1 94.2 157.1 93.5 156.6 92.5H143.7V88.3H143.3V86.2H143.7V79.3H143.3V77.2H143.7V74.8H144.7V72.8H146.6V70.9H148.6V69.1L149.5 69.4C151 70 152.6 70.3 154.3 70.2C157.2 70.2 158.6 70.9 159.1 71.4H159.2V68.5H136.1" fill="#B38808"/>
</svg>
