<svg width="110" height="60" viewBox="0 0 110 60" fill="none" xmlns="http://www.w3.org/2000/svg">
<g clip-path="url(#clip0_97_68)">
<path d="M110 0H0V59.89H110V0Z" fill="#070606"/>
<path d="M54.51 25.48L54.24 24L49.92 24.24V26.48L51.14 26.63V38.31H55.14V28.73C56.32 27.48 57.04 26.95 58.29 26.95C59.54 26.95 60.29 27.95 60.29 30.05V38.31H64.29V29.31C64.29 25.56 62.5 23.57 59.11 23.57C58.2512 23.5404 57.3961 23.6956 56.6024 24.0251C55.8088 24.3546 55.0953 24.8508 54.51 25.48Z" fill="white"/>
<path d="M89.25 27C90.84 27 91.65 28.37 91.65 31.06C91.65 33.06 91.07 35.39 88.28 35.39C87.4979 35.3811 86.7244 35.2251 86 34.93V28.87C86.3659 28.3336 86.8482 27.8868 87.411 27.563C87.9738 27.2392 88.6024 27.0467 89.25 27ZM80.71 18.67V20.9L82.16 21.08C82.16 21.52 82.16 37.68 82.16 37.68C84.0661 38.2668 86.0459 38.58 88.04 38.61C92.95 38.61 95.77 35.71 95.77 30.61C95.77 26.31 93.55 23.61 89.98 23.61C88.5074 23.59 87.0806 24.1215 85.98 25.1V18.47L80.71 18.67Z" fill="white"/>
<path d="M67.43 24.5101L67.21 24.5901L67.93 27.5901L68.21 27.4801C69.4841 26.9756 70.8397 26.7078 72.21 26.6901C74.41 26.6901 74.83 27.4901 74.83 28.9801V29.4501H73.37C68.61 29.4501 66.21 31.0401 66.21 34.2001C66.21 37.0001 68.07 38.6701 71.21 38.6701C72.7375 38.6941 74.2221 38.1649 75.39 37.1801C75.47 37.5701 75.61 38.2901 75.61 38.2901L80 38.1601V35.9201L78.66 35.7901V28.6801C78.66 25.2701 76.66 23.6101 72.66 23.6101C70.8789 23.6189 69.1116 23.9231 67.43 24.5101ZM70.17 34.0001C70.17 33.2201 70.5 32.1901 73.32 32.1901H74.78V34.4101C74.0506 35.1731 73.0545 35.6246 72 35.6701C71.7648 35.7084 71.524 35.693 71.2956 35.625C71.0672 35.5571 70.8571 35.4383 70.6811 35.2777C70.5051 35.1171 70.3677 34.9187 70.2792 34.6975C70.1906 34.4762 70.1533 34.2378 70.17 34.0001Z" fill="white"/>
<path d="M33.59 14.88L28.36 21.32L20.9 17.7C20.83 17.6353 20.7392 17.5978 20.644 17.5941C20.5487 17.5904 20.4553 17.6209 20.3806 17.68C20.3058 17.7391 20.2546 17.8229 20.2362 17.9164C20.2177 18.0099 20.2333 18.1069 20.28 18.19L22 26.27L14.53 29.86C14.436 29.875 14.3505 29.923 14.2887 29.9954C14.227 30.0678 14.193 30.1598 14.193 30.255C14.193 30.3501 14.227 30.4422 14.2887 30.5146C14.3505 30.587 14.436 30.635 14.53 30.65L22 34.31L20.16 42.41C20.1132 42.492 20.0969 42.588 20.1141 42.6809C20.1312 42.7739 20.1808 42.8577 20.2538 42.9176C20.3269 42.9775 20.4188 43.0096 20.5133 43.0082C20.6078 43.0068 20.6987 42.972 20.77 42.91L28.23 39.38L33.43 45.88C33.4656 45.9674 33.531 46.0394 33.6145 46.0833C33.6981 46.1272 33.7945 46.1401 33.8867 46.1197C33.9789 46.0994 34.0609 46.0471 34.1182 45.9721C34.1755 45.8971 34.2045 45.8043 34.2 45.71L36.08 37.66H44.41C44.5014 37.6895 44.6004 37.6852 44.6889 37.6478C44.7773 37.6104 44.8494 37.5424 44.8919 37.4562C44.9343 37.3701 44.9444 37.2715 44.9202 37.1786C44.896 37.0856 44.8391 37.0045 44.76 36.95L39.63 30.44L44.84 23.94C44.916 23.8851 44.9703 23.8053 44.9934 23.7144C45.0165 23.6236 45.007 23.5275 44.9665 23.443C44.926 23.3584 44.8571 23.2908 44.7719 23.2519C44.6866 23.2129 44.5904 23.2052 44.5 23.23H42.37C42.2969 23.2304 42.2246 23.2457 42.1576 23.275C42.0905 23.3042 42.0301 23.3467 41.98 23.4L34.18 31.7C34.11 31.78 34.04 31.81 34 31.78C33.96 31.75 34 31.69 34 31.6L40.7 23.5C40.7177 23.4715 40.7271 23.4386 40.7271 23.405C40.7271 23.3714 40.7177 23.3385 40.7 23.31C40.6824 23.2774 40.6564 23.2501 40.6248 23.2307C40.5932 23.2114 40.557 23.2008 40.52 23.2H37.79C37.5695 23.2188 37.365 23.3228 37.22 23.49C35.95 24.84 29.64 31.56 29.51 31.71C29.38 31.86 29.37 31.82 29.33 31.79C29.29 31.76 29.33 31.7 29.33 31.61L35.88 23.61C35.9509 23.552 36.0075 23.4787 36.0456 23.3955C36.0838 23.3123 36.1024 23.2215 36.1 23.13C36.1 23.04 34.33 15.13 34.31 15.05C34.2975 14.9717 34.262 14.8989 34.208 14.8408C34.1541 14.7828 34.0841 14.7421 34.0069 14.7238C33.9298 14.7056 33.849 14.7107 33.7747 14.7385C33.7005 14.7663 33.6362 14.8156 33.59 14.88Z" fill="#C40905"/>
<mask id="mask0_97_68" style="mask-type:luminance" maskUnits="userSpaceOnUse" x="15" y="15" width="29" height="30">
<path d="M43.7 23.82H42.32C42.1896 23.8207 42.0612 23.8519 41.9449 23.9109C41.8286 23.9699 41.7276 24.0552 41.65 24.16L34.44 31.68C33.91 32.24 33.51 31.93 34.01 31.31C34.18 31.11 37.66 26.88 39.8 24.19C39.89 24.08 39.99 23.76 39.7 23.76H37.64C37.5429 23.7521 37.4454 23.7702 37.3575 23.8123C37.2697 23.8545 37.1946 23.9192 37.14 24L29.78 31.69C29.25 32.24 28.78 31.92 29.33 31.3C29.5 31.09 33.33 26.41 35.43 23.74C35.5188 23.6559 35.5813 23.5477 35.6097 23.4288C35.6381 23.3098 35.6313 23.1851 35.59 23.07L34 16C33.95 15.76 33.77 15.72 33.62 15.91L28.85 21.7C28.7656 21.7947 28.6534 21.8603 28.5294 21.8872C28.4054 21.9142 28.2761 21.9011 28.16 21.85L21.4 18.56C21.18 18.45 21.04 18.56 21.09 18.8L22.68 26.15C22.7033 26.2758 22.6858 26.4057 22.63 26.5208C22.5743 26.636 22.4832 26.7303 22.37 26.79L15.57 30C15.35 30.11 15.34 30.29 15.57 30.39L22.31 33.73C22.4213 33.7911 22.5103 33.8861 22.5642 34.0011C22.6182 34.1161 22.6342 34.2453 22.61 34.37L20.91 41.7C20.86 42 21 42.08 21.22 42L28 38.79C28.1171 38.74 28.2471 38.7285 28.3711 38.7573C28.4952 38.786 28.6068 38.8535 28.69 38.95L33.36 44.85C33.51 45.05 33.69 45.01 33.75 44.76L35.5 37.45C35.5332 37.3213 35.6082 37.2073 35.7132 37.1259C35.8181 37.0445 35.9471 37.0002 36.08 37H43.6C43.85 37 43.93 36.84 43.77 36.65L39.14 30.72C39.0644 30.617 39.0237 30.4927 39.0237 30.365C39.0237 30.2373 39.0644 30.1129 39.14 30.01L43.85 24.15C44 24 44 23.83 43.7 23.82Z" fill="white"/>
</mask>
<g mask="url(#mask0_97_68)">
<mask id="mask1_97_68" style="mask-type:luminance" maskUnits="userSpaceOnUse" x="15" y="15" width="29" height="30">
<path d="M43.99 15.75H15.34V44.98H43.99V15.75Z" fill="white"/>
</mask>
<g mask="url(#mask1_97_68)">
<mask id="mask2_97_68" style="mask-type:luminance" maskUnits="userSpaceOnUse" x="15" y="15" width="29" height="31">
<path d="M43.85 15.8701H15.21V45.1101H43.85V15.8701Z" fill="white"/>
</mask>
<g mask="url(#mask2_97_68)">
<path d="M43.85 15.8701H15.21V45.1101H43.85V15.8701Z" fill="url(#paint0_radial_97_68)"/>
</g>
</g>
</g>
</g>
<defs>
<radialGradient id="paint0_radial_97_68" cx="0" cy="0" r="1" gradientUnits="userSpaceOnUse" gradientTransform="translate(32.9378 40.6793) scale(25.87 25.87)">
<stop stop-color="#C40804"/>
<stop offset="0.48" stop-color="#C40804"/>
<stop offset="1" stop-color="#D3532A"/>
</radialGradient>
<clipPath id="clip0_97_68">
<rect width="110" height="59.89" fill="white"/>
</clipPath>
</defs>
</svg>
