<svg width="515" height="222" viewBox="0 0 515 222" fill="none" xmlns="http://www.w3.org/2000/svg">
<rect width="515" height="222" fill="#E60028"/>
<path fill-rule="evenodd" clip-rule="evenodd" d="M78.843 30H64.59V41.569H40.848V65.683H23V101.352H41.074V124.825H64.59V136.79H77.143C106.468 136.79 132.36 113.157 132.36 83.518C132.36 54.184 108.195 30 78.843 30Z" fill="white"/>
<path fill-rule="evenodd" clip-rule="evenodd" d="M365.587 40.2612H377.933V126.689H365.587V131.151H408.528V126.689H396.177V40.2612H408.528V35.6992H365.587V40.2612Z" fill="white"/>
<path fill-rule="evenodd" clip-rule="evenodd" d="M490.226 35.7041H413.782L412.228 60.8301H416.742C419.345 42.5961 422.786 38.2981 442.894 39.3141V126.693H429.747V131.156H474.34V126.693H461.185V39.3141C481.334 38.2981 484.743 42.5961 487.322 60.8301H491.747L490.226 35.7041Z" fill="white"/>
<path fill-rule="evenodd" clip-rule="evenodd" d="M186.433 76.5557V40.1667H198.878C211.539 40.1667 216.237 43.3907 216.237 59.3327C216.237 72.1687 210.989 76.5557 198.167 76.5557H186.433ZM326.863 41.6677V126.548H314.569V130.996H357.458V126.548H345.093V40.1667H357.458V35.6287H322.199L301.516 100.881L281.573 35.6287H246.507V40.1667H258.797V126.548H245.505C233.13 126.769 232.909 116.291 232.984 114.108C233.13 90.8687 227.99 82.4247 205.688 78.9797V78.6647C218.981 77.2617 235.94 73.5007 235.94 57.3847C235.94 37.5167 217.409 35.6287 201.806 35.6287H155.772V40.1667H168.137V126.548H155.772V131.085H198.723V126.548H186.433V81.0177C194.322 80.6977 203.251 82.6457 207.242 86.1857C210.989 89.3107 212.947 99.0927 212.947 110.902C212.947 125.456 220.544 130.996 234.98 130.996H276.315V126.548H264.28V41.6677H264.577L292.983 130.996H297.826L326.379 41.6677H326.863Z" fill="white"/>
<path fill-rule="evenodd" clip-rule="evenodd" d="M191.507 157.359V178.248C191.507 183.972 187.911 187.318 182.47 187.318C177.043 187.318 173.433 183.972 173.433 178.248V157.359C173.433 154.935 172.43 153.914 169.983 153.914H164.616V158.549H166.914C167.653 158.549 168.1 158.931 168.1 159.713V178.493C168.1 186.711 173.875 192.411 182.512 192.411C191.168 192.411 196.906 186.711 196.906 178.493V159.713C196.906 158.931 197.316 158.549 198.092 158.549H200.361V153.914H195.019C192.618 153.914 191.507 154.935 191.507 157.359Z" fill="white"/>
<path fill-rule="evenodd" clip-rule="evenodd" d="M232.278 157.359V177.857C232.278 180.06 232.574 183.025 232.574 183.025H232.499C232.499 183.025 230.72 179.89 229.318 177.857L212.561 153.914H207.633V185.916C207.633 186.711 207.237 187.172 206.461 187.172H204.188V191.71H209.577C212.025 191.71 213.022 190.688 213.022 188.264V167.765C213.022 165.728 212.726 162.687 212.726 162.687H212.801C212.801 162.687 214.5 165.728 215.908 167.765L232.796 191.71H237.588V159.713C237.588 158.931 237.983 158.549 238.759 158.549H241.033V153.914H235.715C233.2 153.914 232.278 154.934 232.278 157.359Z" fill="white"/>
<path fill-rule="evenodd" clip-rule="evenodd" d="M245.797 158.55H249.506V187.173H245.797V191.71H258.247V187.173H254.585V158.55H258.247V153.914H245.797V158.55Z" fill="white"/>
<path fill-rule="evenodd" clip-rule="evenodd" d="M288.601 157.044L280.308 180.286C279.607 182.396 278.905 185.525 278.905 185.525H278.754C278.754 185.525 278.053 182.396 277.352 180.286L269.016 157.044C268.188 154.54 267.242 153.914 264.578 153.914H261.57V158.55H262.309C263.259 158.55 263.796 158.772 264.135 159.713L276.02 191.71H281.649L293.535 159.713C293.84 158.772 294.348 158.55 295.328 158.55H296.085V153.914H293.054C290.404 153.914 289.534 154.54 288.601 157.044Z" fill="white"/>
<path fill-rule="evenodd" clip-rule="evenodd" d="M321.389 185.916C321.389 186.711 320.994 187.173 320.208 187.173H309.184C308.483 187.173 308.012 186.711 308.012 185.916V174.973H321.243V170.359H308.012V158.55H318.801C319.502 158.55 319.982 158.932 319.982 159.713V162.137H324.83V157.359C324.83 154.936 323.814 153.914 321.389 153.914H299.168V158.55H302.652V188.265C302.652 190.688 303.705 191.71 306.054 191.71H322.868C325.31 191.71 326.308 190.688 326.308 188.265V183.581H321.389V185.916Z" fill="white"/>
<path fill-rule="evenodd" clip-rule="evenodd" d="M345.79 172.087H338.828V158.55H345.907C349.903 158.55 352.295 161.045 352.295 165.196C352.295 169.418 349.903 172.087 345.79 172.087ZM357.176 185.916L352.601 176.846C351.975 175.599 351.048 175.118 351.048 175.118V175.043C353.702 174.417 357.849 171.287 357.849 165.026C357.849 158.07 353.165 153.914 346.501 153.914H330.026V158.55H333.519V191.71H338.828V176.695H343.757C345.865 176.695 346.576 176.931 347.513 178.733L352.676 188.891C353.942 191.315 354.944 191.71 357.924 191.71H360.564V187.173H359.858C358.541 187.173 357.68 187.022 357.176 185.916Z" fill="white"/>
<mask id="mask0_88_13" style="mask-type:luminance" maskUnits="userSpaceOnUse" x="363" y="153" width="25" height="40">
<path d="M363.313 153.311H387.897V192.416H363.313V153.311Z" fill="white"/>
</mask>
<g mask="url(#mask0_88_13)">
<path fill-rule="evenodd" clip-rule="evenodd" d="M369.663 163.233C369.663 160.419 372.233 158.159 376.305 158.159C379.266 158.159 382.085 159.566 382.085 161.581V163.393H387.064V160.268C387.064 155.099 380.301 153.311 376.305 153.311C369.192 153.311 364.175 157.745 364.175 163.393C364.175 175.212 382.461 173.956 382.461 181.863C382.461 185.379 379.51 187.493 375.994 187.493C370.364 187.493 366.528 182.955 366.528 182.955L363.313 186.715C363.313 186.715 367.86 192.416 375.862 192.416C383.347 192.416 387.897 187.418 387.897 181.618C387.897 169.178 369.663 170.896 369.663 163.233Z" fill="white"/>
</g>
<path fill-rule="evenodd" clip-rule="evenodd" d="M392.728 158.55H396.417V187.173H392.728V191.71H405.215V187.173H401.497V158.55H405.215V153.914H392.728V158.55Z" fill="white"/>
<path fill-rule="evenodd" clip-rule="evenodd" d="M437.975 153.914H411.899C409.494 153.914 408.693 154.714 408.693 157.138V162.137H413.452V159.713C413.452 158.932 413.894 158.55 414.633 158.55H422.231V191.71H427.639V158.55H435.231C435.932 158.55 436.374 158.932 436.374 159.713V162.137H441.152V157.138C441.152 154.714 440.342 153.914 437.975 153.914Z" fill="white"/>
<path fill-rule="evenodd" clip-rule="evenodd" d="M467.129 156.822L461.41 166.358C460.177 168.472 459.155 170.581 459.155 170.581H459.005C459.005 170.581 457.97 168.472 456.751 166.358L451.003 156.822C449.525 154.318 448.49 153.914 445.939 153.914H443.435V158.55H444.526C445.643 158.55 446.122 158.771 446.786 159.882L456.416 175.213V191.715H461.749V175.213L471.285 159.882C471.986 158.771 472.524 158.55 473.639 158.55H474.642V153.914H472.232C469.709 153.914 468.636 154.318 467.129 156.822Z" fill="white"/>
</svg>
